<?xml version="1.0"?>
<svg width="18" height="18" xmlns="http://www.w3.org/2000/svg">
 <g class="layer">
  <title>Layer 1</title>
  <g id="heart">
   <path clip-rule="evenodd" d="m4.45,3.04c-1.37,0.52 -2.47,1.83 -2.47,3.56c0,1.37 0.62,2.69 1.61,3.95c0.99,1.27 2.31,2.44 3.63,3.52c0.54,0.44 0.89,0.73 1.19,0.92c0.29,0.18 0.45,0.22 0.59,0.22c0.14,0 0.3,-0.04 0.59,-0.22c0.3,-0.19 0.65,-0.48 1.19,-0.92c1.32,-1.08 2.64,-2.25 3.63,-3.52c0.99,-1.26 1.61,-2.58 1.61,-3.95c0,-1.73 -1.1,-3.04 -2.47,-3.56c-1.36,-0.53 -2.96,-0.27 -4.04,1.11c-0.12,0.16 -0.31,0.25 -0.51,0.25c-0.2,0 -0.39,-0.09 -0.51,-0.25c-1.08,-1.38 -2.68,-1.64 -4.04,-1.11zm4.55,-0.21c-1.44,-1.38 -3.39,-1.58 -5.02,-0.95c-1.81,0.69 -3.27,2.43 -3.27,4.72c0,1.75 0.79,3.33 1.87,4.71c1.08,1.39 2.49,2.63 3.82,3.72l0.03,0.02c0.5,0.41 0.92,0.75 1.29,0.99c0.39,0.25 0.8,0.42 1.28,0.42c0.48,0 0.89,-0.17 1.28,-0.42c0.37,-0.24 0.79,-0.58 1.29,-0.99l0.03,-0.02c1.33,-1.09 2.74,-2.33 3.82,-3.72c1.08,-1.38 1.87,-2.96 1.87,-4.71c0,-2.29 -1.46,-4.03 -3.27,-4.72c-1.63,-0.63 -3.58,-0.43 -5.02,0.95z" fill="#174261" fill-rule="evenodd" id="shape" transform="matrix(1 0 0 1 0 0)"/>
   <ellipse cx="6.37" cy="7.28" fill="#174261" id="svg_2" rx="4.46" ry="4.16" stroke="#174261" transform="matrix(1 0 0 1 0 0)"/>
   <ellipse cx="11.81" cy="7.32" fill="#174261" id="svg_3" rx="4.46" ry="4.16" stroke="#174261"/>
   <ellipse cx="8.89" cy="10.63" fill="#174261" id="svg_4" rx="4.46" ry="4.16" stroke="#174261" transform="matrix(1 0 0 1 0 0)"/>
  </g>
 </g>
</svg>